{"title":"The Adventurer: The.Curse.Of.The.Midas.Box.2013.1080p.BluRay.x26","uid":9553454,"size":2426349719,"categoryP":"video","categoryS":"hd___movies","magnet":"?xt=urn:btih:eeee316b1d99325976b3e944631c0a1cdb42b380&amp;dn=The+Adventurer%3A+The.Curse.Of.The.Midas.Box.2013.1080p.BluRay.x26&amp;tr=udp%3A%2F%2Ftracker.openbittorrent.com%3A80&amp;tr=udp%3A%2F%2Fopen.demonii.com%3A1337&amp;tr=udp%3A%2F%2Ftracker.coppersurfer.tk%3A6969&amp;tr=udp%3A%2F%2Fexodus.desync.com%3A6969","seeders":1,"leechers":0,"uploader":".NVEE","files":-1,"time":1391308456,"description":"FULL_INFOs\n\n\n99.99% --- SYNCED GUARANTEED \n\n&quot;Totally scrutinized / analyzed to be a verified torrent.&quot;\n___________________________________________\n\nSource : Blu-ray ~ 1080p\n\nMy Media Player of Choice &quot;VLC Media Player via HDMI&quot;\n\nSpoken Language : English\n\nAudio : 6 ~ Channels Only\n\nDon't delete torrent link,... Please seed . NVEE\n_____________________________________\n\n\n &lt;a href=&quot;\nhttp://www.imdb.com/title/tt1376213/&quot; rel=&quot;nofollow&quot; target=&quot;_NEW&quot;&gt;\nhttp://www.imdb.com/title/tt1376213/&lt;/a&gt;\n\n\n\nSubs Info : MULTI_SUBS\n\n &lt;a href=&quot;\nhttp://www.subtitleseeker.com/1376213/The+Adventurer%3A+The+Curse+of+the+Midas+Box/Subtitles/&quot; rel=&quot;nofollow&quot; target=&quot;_NEW&quot;&gt;\nhttp://www.subtitleseeker.com/1376213/The+Adventurer%3A+The+Curse+of+the+Midas+Box/Subtitles/&lt;/a&gt;\n\n41 Subtitles In 11 Languages Use Link Provided \n &lt;a href=&quot;\nhttp://www.subtitleseeker.com/1376213/The+Adventurer%3A+The+Curse+of+the+Midas+Box/Subtitles/&quot; rel=&quot;nofollow&quot; target=&quot;_NEW&quot;&gt;\nhttp://www.subtitleseeker.com/1376213/The+Adventurer%3A+The+Curse+of+the+Midas+Box/Subtitles/&lt;/a&gt;\n\n41 Subtitles In 11 Languages Only @ SubtitleSeeker\n &lt;a href=&quot;\nhttp://www.subtitleseeker.com/1376213/The+Adventurer%3A+The+Curse+of+the+Midas+Box/Subtitles/&quot; rel=&quot;nofollow&quot; target=&quot;_NEW&quot;&gt;\nhttp://www.subtitleseeker.com/1376213/The+Adventurer%3A+The+Curse+of+the+Midas+Box/Subtitles/&lt;/a&gt;\n\n&amp; or @\n &lt;a href=&quot;\nhttp://subscene.com/subtitles/the-adventurer-the-curse-of-the-midas-box&quot; rel=&quot;nofollow&quot; target=&quot;_NEW&quot;&gt;\nhttp://subscene.com/subtitles/the-adventurer-the-curse-of-the-midas-box&lt;/a&gt;\n\nAll .srt &amp; .idx subs can be turned On/Off\n\n\n &lt;a href=&quot;\nhttp://www.imdb.com/title/tt1376213/&quot; rel=&quot;nofollow&quot; target=&quot;_NEW&quot;&gt;\nhttp://www.imdb.com/title/tt1376213/&lt;/a&gt;\n\n\n\n---------------------------------------------------------------------------------\n\n\nGeneral Metadata\n\nComplete name : The Adventurer: The.Curse.Of.The.Midas.Box.2013.1080p.BluRay.x264 . NVEE.mp4\nFormat : MPEG-4\nFormat profile : Base Media\nCodec ID : isom\nFile size : 2.26 GiB\nDuration : 1h 39mn\nOverall bit rate : 3 264 Kbps\nEncoded date : UTC 2014-01-30 09:48:32\nTagged date : UTC 2014-01-30 09:48:32\n\n\nVideo\n\nID : 1\nFormat : AVC\nFormat/Info : Advanced Video Codec\nFormat profile : &lt;a class=&quot;__cf_email__&quot; href=&quot;/cdn-cgi/l/email-protection&quot; data-cfemail=&quot;90d8f9f7f8d0dca4bea0&quot;&gt;[email&amp;#160;protected]&lt;/a&gt;&lt;script cf-hash='f9e31' type=&quot;text/javascript&quot;&gt;\n/* &lt;![CDATA[ */!function(){try{var t=&quot;currentScript&quot;in document?document.currentScript:function(){for(var t=document.getElementsByTagName(&quot;script&quot;),e=t.length;e--;)if(t[e].getAttribute(&quot;cf-hash&quot;))return t[e]}();if(t&amp;&amp;t.previousSibling){var e,r,n,i,c=t.previousSibling,a=c.getAttribute(&quot;data-cfemail&quot;);if(a){for(e=&quot;&quot;,r=parseInt(a.substr(0,2),16),n=2;a.length-n;n+=2)i=parseInt(a.substr(n,2),16)^r,e+=String.fromCharCode(i);e=document.createTextNode(e),c.parentNode.replaceChild(e,c)}}}catch(u){}}();/* ]]&gt; */&lt;/script&gt;\nFormat settings, CABAC : Yes\nFormat settings, ReFrames : 3 frames\nCodec ID : avc1\nCodec ID/Info : Advanced Video Coding\nDuration : 1h 39mn\nBit rate : 2 622 Kbps\nMaximum bit rate : 16.5 Mbps\nWidth : 1 920 pixels\nHeight : 816 pixels\nDisplay aspect ratio : 2.35:1\nFrame rate mode : Constant\nFrame rate : 23.976 fps\nColor space : YUV\nChroma subsampling : 4:2:0\nBit depth : 8 bits\nScan type : Progressive\nBits/(Pixel*Frame) : 0.070\nStream size : 1.81 GiB (80%)\nWriting library : x264 core 138 r2358 9e941d1\n\n\nAudio\n\nID : 2\nFormat : AC-3\nFormat/Info : Audio Coding 3\nMode extension : CM (complete main)\nFormat settings, Endianness : Big\nCodec ID : ac-3\nDuration : 1h 39mn\nBit rate mode : Constant\nBit rate : 640 Kbps\nChannel(s) : 6 channels\nChannel positions : Front: L C R, Side: L R, LFE\nSampling rate : 48.0 KHz\nBit depth : 16 bits\nCompression mode : Lossy\nStream size : 454 MiB (20%)\nLanguage : English\nEncoded date : UTC 2014-01-30 09:59:23\nTagged date : UTC 2014-01-30 10:01:24\n\n\nSynopsis\n\nMariah Mundi has no choice but to unite with the enigmatic Will Charity when his family are kidnapped by an unknown enemy. Their adventure leads them to the mysterious and majestic Prince Regent, a huge steam-powered hotel on a small island at the furthest reach of the Empire. Mariah, with the help of Charity must unravel the secrets of the island to find the truth behind the disappearance of his family, and prevent Otto Luger from getting his hands on the mystical and powerful Midas Box.\n\n\nEnjoy !","torrent":{"xt":"urn:btih:eeee316b1d99325976b3e944631c0a1cdb42b380","amp;dn":"The+Adventurer%3A+The.Curse.Of.The.Midas.Box.2013.1080p.BluRay.x26","amp;tr":["udp%3A%2F%2Ftracker.openbittorrent.com%3A80","udp%3A%2F%2Fopen.demonii.com%3A1337","udp%3A%2F%2Ftracker.coppersurfer.tk%3A6969","udp%3A%2F%2Fexodus.desync.com%3A6969"],"infoHash":"eeee316b1d99325976b3e944631c0a1cdb42b380","infoHashBuffer":{"type":"Buffer","data":[238,238,49,107,29,153,50,89,118,179,233,68,99,28,10,28,219,66,179,128]},"announce":[],"urlList":[]}}